Coordinates
version=1
nRows=26
nColumns=22
inDegrees=yes

Units are S.I. units (second, meters, Newtons, ...)
If the header above contains a line with 'inDegrees', this indicates whether rotational values are in degrees (yes) or radians (no).

endheader
time	pelvis_tilt	pelvis_list	pelvis_rotation	pelvis_tx	pelvis_ty	pelvis_tz	hip_flexion_r	hip_adduction_r	hip_rotation_r	knee_angle_r	ankle_angle_r	subtalar_angle_r	hip_flexion_l	hip_adduction_l	hip_rotation_l	knee_angle_l	ankle_angle_l	subtalar_angle_l	lumbar_extension	lumbar_bending	lumbar_rotation
      1.35000000	     -5.88513049	     -7.60245524	      3.62224194	     -1.07874582	      0.97505158	      0.07492017	      9.12538660	      8.28105380	     -7.76482473	    -14.05279445	      9.47962488	      0.42485586	      7.45408239	     -6.16131776	      5.68065590	    -10.72061353	     11.71537543	     -3.38711538	      1.90571942	      6.37681529	     -5.47080800
      1.36000000	     -5.89626819	     -7.62278432	      3.58189915	     -1.07837783	      0.97499577	      0.07442544	      9.13867159	      8.27188435	     -7.73636127	    -14.10161015	      9.50429028	      0.43844311	      7.45228560	     -6.15141011	      5.67971769	    -10.75749522	     11.76537080	     -3.41820671	      1.89481222	      6.37215045	     -5.42406717
      1.37000000	     -5.90770100	     -7.63960624	      3.54295438	     -1.07799529	      0.97493360	      0.07392004	      9.16120105	      8.25658045	     -7.70991162	    -14.16835291	      9.53493401	      0.45301776	      7.44634093	     -6.13740068	      5.68236396	    -10.78867442	     11.81442795	     -3.45028063	      1.88507739	      6.36115349	     -5.38203596
      1.38000000	     -5.93650810	     -7.64038095	      3.49404266	     -1.07757383	      0.97483997	      0.07341487	      9.20978588	      8.22057214	     -7.68720515	    -14.25748119	      9.60606203	      0.49571226	      7.45340386	     -6.10649069	      5.65207876	    -10.81787669	     11.86788844	     -3.51835759	      1.89994076	      6.32938211	     -5.32403535
      1.39000000	     -5.93417793	     -7.66291135	      3.47795729	     -1.07715980	      0.97479270	      0.07288067	      9.23220412	      8.20846391	     -7.65738061	    -14.34941764	      9.61363836	      0.50745175	      7.43438195	     -6.09651867	      5.68786832	    -10.84832507	     11.89391857	     -3.53290244	      1.87788717	      6.31942093	     -5.31613145
      1.40000000	     -5.94286244	     -7.66121407	      3.45977278	     -1.07668440	      0.97470219	      0.07233718	      9.28406318	      8.16188718	     -7.67148466	    -14.48779018	      9.70842280	      0.55391301	      7.41811600	     -6.06073107	      5.70030968	    -10.87244185	     11.97243294	     -3.58615937	      1.87517396	      6.27732851	     -5.26925897
      1.41000000	     -5.94915830	     -7.65265851	      3.46345404	     -1.07622439	      0.97462634	      0.07174524	      9.34637560	      8.10272843	     -7.66759350	    -14.64719891	      9.78543562	      0.67344623	      7.40954186	     -6.01210393	      5.73263340	    -10.90632464	     11.99139301	     -3.66188905	      1.86638436	      6.22768685	     -5.27541702
      1.42000000	     -5.92540579	     -7.67147850	      3.47652454	     -1.07569747	      0.97458390	      0.07116981	      9.37108194	      8.07818465	     -7.68105038	    -14.79496724	      9.83178120	      0.70779251	      7.36241458	     -5.99710722	      5.78820827	    -10.93163260	     12.06074548	     -3.68449817	      1.83179460	      6.20149129	     -5.25884707
      1.43000000	     -5.88736520	     -7.67283025	      3.51346091	     -1.07514501	      0.97455204	      0.07053091	      9.39256446	      8.02807743	     -7.71391380	    -14.96869943	      9.90079119	      0.75396572	      7.30335486	     -5.95978321	      5.84819800	    -10.96100240	     12.11800828	     -3.70781659	      1.78224991	      6.15686927	     -5.27144428
      1.44000000	     -5.83719982	     -7.66557080	      3.57177365	     -1.07455036	      0.97453823	      0.06985723	      9.40513514	      7.96572031	     -7.76554854	    -15.15392710	      9.97726844	      0.81913838	      7.22987883	     -5.91122961	      5.92499116	    -10.98643317	     12.16559158	     -3.73293090	      1.72328262	      6.09752574	     -5.30890991
      1.45000000	     -5.77678307	     -7.65768226	      3.64821389	     -1.07392523	      0.97453161	      0.06911716	      9.41194148	      7.89836634	     -7.82608790	    -15.35024817	     10.05239611	      0.88208558	      7.14706925	     -5.85748235	      6.01386365	    -11.01363148	     12.21812129	     -3.75638700	      1.65522979	      6.04126301	     -5.35622274
      1.46000000	     -5.70513432	     -7.64048805	      3.74822523	     -1.07326406	      0.97453170	      0.06831059	      9.41339620	      7.81564483	     -7.90743792	    -15.56249071	     10.14115117	      0.94721829	      7.05306091	     -5.78923095	      6.11983912	    -11.04107203	     12.26996567	     -3.78089208	      1.57677168	      5.97661742	     -5.42695782
      1.47000000	     -5.62692624	     -7.61708005	      3.86801582	     -1.07257141	      0.97453247	      0.06745743	      9.41618730	      7.72252503	     -7.99829630	    -15.79232362	     10.23779444	      1.01079370	      6.95285261	     -5.71148910	      6.24109946	    -11.06900201	     12.31974521	     -3.80732774	      1.49291492	      5.90368287	     -5.51673415
      1.48000000	     -5.54272389	     -7.57846640	      4.02101197	     -1.07183302	      0.97453670	      0.06655609	      9.41776227	      7.60865710	     -8.10812042	    -16.03758523	     10.35149502	      1.11588279	      6.84082814	     -5.61450397	      6.39318632	    -11.08358250	     12.32945349	     -3.85066034	      1.40581426	      5.80903778	     -5.66447736
      1.49000000	     -5.45525737	     -7.53599824	      4.17652843	     -1.07108767	      0.97451483	      0.06561805	      9.44394048	      7.48625046	     -8.21701822	    -16.33437188	     10.48039830	      1.19292221	      6.73602177	     -5.50940578	      6.54605023	    -11.12087009	     12.38265826	     -3.90024341	      1.31112714	      5.71370101	     -5.78335332
      1.50000000	     -5.36557296	     -7.47986920	      4.35209545	     -1.07032643	      0.97447631	      0.06463338	      9.49532437	      7.34181292	     -8.33905456	    -16.68223638	     10.62203283	      1.28472769	      6.63295381	     -5.38425139	      6.73896163	    -11.16690729	     12.43215574	     -3.97097313	      1.21379118	      5.60142463	     -5.90475994
      1.51000000	     -5.27062930	     -7.40804905	      4.53672595	     -1.06953097	      0.97441038	      0.06361719	      9.57076804	      7.17695791	     -8.45605913	    -17.09058528	     10.79291921	      1.33496388	      6.53140806	     -5.24017778	      6.90701042	    -11.22738293	     12.49887652	     -4.03300550	      1.10906696	      5.47461797	     -6.05482284
      1.52000000	     -5.17553232	     -7.31726078	      4.73971182	     -1.06873455	      0.97431438	      0.06255616	      9.68914249	      6.98164069	     -8.58524370	    -17.57711696	     10.97885091	      1.40121756	      6.44171669	     -5.06931593	      7.12056275	    -11.31236141	     12.56268550	     -4.11851503	      0.99952026	      5.32755458	     -6.19643500
      1.53000000	     -5.07393649	     -7.21075760	      4.94236521	     -1.06789528	      0.97418014	      0.06147888	      9.84353312	      6.76417047	     -8.70915917	    -18.14812193	     11.18929562	      1.45186821	      6.35490203	     -4.87954825	      7.31614473	    -11.42363916	     12.65817036	     -4.20700520	      0.88216751	      5.16676860	     -6.34053352
      1.54000000	     -5.01323148	     -7.08832246	      5.15232763	     -1.06707860	      0.97395208	      0.06038529	     10.10453972	      6.51391975	     -8.83909919	    -18.83112463	     11.40178518	      1.58230676	      6.32665499	     -4.66263283	      7.56322597	    -11.56363867	     12.73841219	     -4.37093280	      0.80399555	      4.98424299	     -6.46980400
      1.55000000	     -4.92228778	     -6.93487102	      5.35775988	     -1.06620267	      0.97371044	      0.05928833	     10.37853981	      6.22995626	     -8.94723894	    -19.60698607	     11.64486254	      1.64926956	      6.27399997	     -4.41572423	      7.76823430	    -11.73336493	     12.84091030	     -4.48158666	      0.68759551	      4.77278171	     -6.59465136
      1.56000000	     -4.82149321	     -6.75216552	      5.56133188	     -1.06529546	      0.97342741	      0.05818306	     10.69399736	      5.90959033	     -9.03730526	    -20.48377050	     11.90276438	      1.69123450	      6.22095834	     -4.13651624	      7.96903510	    -11.93438511	     12.94098890	     -4.56590895	      0.55354187	      4.53084241	     -6.70230696
      1.57000000	     -4.74516952	     -6.54689819	      5.75439288	     -1.06436021	      0.97305491	      0.05709038	     11.10161586	      5.55350814	     -9.11879024	    -21.48628709	     12.15770473	      1.75669687	      6.19212921	     -3.83278835	      8.15643150	    -12.14532167	     13.05694403	     -4.65909008	      0.44169675	      4.26288789	     -6.80337502
      1.58000000	     -4.70935657	     -6.33133973	      5.93247951	     -1.06340778	      0.97257032	      0.05601494	     11.62284511	      5.17134246	     -9.19023247	    -22.61724294	     12.38991109	      1.88581631	      6.20747525	     -3.51641001	      8.31666263	    -12.36699117	     13.20392912	     -4.77486832	      0.37287933	      3.98179155	     -6.90104836
      1.59000000	     -4.65180418	     -6.09148802	      6.10521521	     -1.06243426	      0.97206611	      0.05494086	     12.17076935	      4.76022135	     -9.23712942	    -23.84330174	     12.61671416	      2.01495139	      6.20631884	     -3.17747562	      8.46017662	    -12.61392543	     13.34654795	     -4.86420405	      0.26774511	      3.67881204	     -6.97633413
      1.60000000	     -4.56210166	     -5.82368793	      6.26063499	     -1.06136609	      0.97158111	      0.05389164	     12.73249766	      4.31908472	     -9.26831866	    -25.16872872	     12.80634511	      2.08131772	      6.12829943	     -2.82080034	      8.59264667	    -12.80848059	     13.45784674	     -4.90774137	      0.12329866	      3.35022414	     -7.02650480
